<svg xmlns="http://www.w3.org/2000/svg" viewBox="0 0 64 64" fill="none">
  <defs>
    <linearGradient id="ayniflow-favicon-bg" x1="8" y1="8" x2="56" y2="56" gradientUnits="userSpaceOnUse">
      <stop offset="0" stop-color="#4B5320" />
      <stop offset="1" stop-color="#8B995E" />
    </linearGradient>
  </defs>
  <rect x="5" y="5" width="54" height="54" rx="15" fill="url(#ayniflow-favicon-bg)" />
  <circle cx="32" cy="32" r="18" fill="#F4F5F0" fill-opacity="0.14" stroke="#F4F5F0" stroke-opacity="0.34" />
  <path
    d="M16.6 35.2C19.2 29.6 22.7 27.3 25.8 29.8C28.8 32.2 28.8 36.8 25.8 39.2C22.7 41.7 19.2 39.4 16.6 33.8"
    stroke="#F4F5F0"
    stroke-width="2.9"
    stroke-linecap="round"
    stroke-linejoin="round"
  />
  <path
    d="M47.4 30.2C44.8 24.6 41.3 22.3 38.2 24.8C35.2 27.2 35.2 31.8 38.2 34.2C41.3 36.7 44.8 34.4 47.4 28.8"
    stroke="#F4F5F0"
    stroke-width="2.9"
    stroke-linecap="round"
    stroke-linejoin="round"
  />
  <path d="M25.7 32H38.3" stroke="#F4F5F0" stroke-width="2.9" stroke-linecap="round" />
  <circle cx="17.4" cy="34.5" r="2.1" fill="#F4F5F0" />
  <circle cx="46.6" cy="29.5" r="2.1" fill="#F4F5F0" />
</svg>