<svg width="720" height="200" viewBox="0 0 720 200" fill="none" xmlns="http://www.w3.org/2000/svg">
  <defs>
    <linearGradient id="ayniflow-logo-bg" x1="24" y1="24" x2="176" y2="176" gradientUnits="userSpaceOnUse">
      <stop offset="0" stop-color="#4B5320" />
      <stop offset="1" stop-color="#8B995E" />
    </linearGradient>
  </defs>

  <rect x="12" y="12" width="176" height="176" rx="40" fill="url(#ayniflow-logo-bg)" />
  <circle cx="100" cy="100" r="58" fill="#F4F5F0" fill-opacity="0.14" stroke="#F4F5F0" stroke-opacity="0.34" />

  <path
    d="M50 112C57.8 95.8 68.4 89.2 77.8 96.2C87 103 87 117 77.8 123.8C68.4 130.8 57.8 124.2 50 108"
    stroke="#F4F5F0"
    stroke-width="7.2"
    stroke-linecap="round"
    stroke-linejoin="round"
  />
  <path
    d="M150 88C142.2 71.8 131.6 65.2 122.2 72.2C113 79 113 93 122.2 99.8C131.6 106.8 142.2 100.2 150 84"
    stroke="#F4F5F0"
    stroke-width="7.2"
    stroke-linecap="round"
    stroke-linejoin="round"
  />
  <path d="M77.5 100H122.5" stroke="#F4F5F0" stroke-width="7.2" stroke-linecap="round" />
  <circle cx="52.5" cy="109.5" r="5.2" fill="#F4F5F0" />
  <circle cx="147.5" cy="90.5" r="5.2" fill="#F4F5F0" />

  <g fill="#1A1C14" font-family="Manrope, Segoe UI, Arial, sans-serif" font-weight="700">
    <text x="228" y="112" font-size="78">Ayni</text>
    <text x="392" y="112" font-size="78" fill="#4B5320">Flow</text>
  </g>
</svg>
